<?xml version="1.0" standalone="no"?>
<!DOCTYPE svg PUBLIC "-//W3C//DTD SVG 20010904//EN"
 "http://www.w3.org/TR/2001/REC-SVG-20010904/DTD/svg10.dtd">
<svg version="1.0" xmlns="http://www.w3.org/2000/svg"
 width="388.000000pt" height="388.000000pt" viewBox="0 0 388.000000 388.000000"
 preserveAspectRatio="xMidYMid meet">
<metadata>
Created by potrace 1.11, written by Peter Selinger 2001-2013
</metadata>
<g transform="translate(0.000000,388.000000) scale(0.100000,-0.100000)"
fill="#000000" stroke="none">
<path d="M804 3579 c-203 -77 -256 -344 -97 -490 63 -58 118 -80 202 -80 54 0
81 5 125 26 229 108 231 419 3 537 -58 30 -164 33 -233 7z m203 -73 c175 -90
166 -336 -16 -412 -138 -58 -300 50 -303 203 -1 79 19 124 84 181 57 52 166
64 235 28z"/>
<path d="M2592 3194 c-39 -17 -72 -57 -82 -97 -4 -21 -2 -72 5 -124 7 -48 19
-131 25 -183 7 -52 16 -103 21 -112 9 -16 4 -18 -45 -18 -47 0 -61 -5 -86 -27
-25 -22 -32 -37 -33 -70 -1 -24 -4 -43 -7 -44 -3 0 -24 -2 -48 -4 -78 -5 -120
-68 -101 -154 4 -20 10 -61 13 -91 4 -30 11 -80 16 -110 5 -30 12 -75 15 -100
28 -204 42 -257 81 -291 31 -27 81 -49 113 -49 32 0 35 -5 46 -83 4 -27 8 -58
10 -69 3 -11 7 -46 11 -77 16 -146 92 -267 210 -336 137 -81 336 -65 463 35
100 79 139 164 165 355 25 182 23 175 56 175 59 0 125 43 155 100 7 14 20 77
29 140 21 140 23 154 31 205 3 22 8 55 10 73 6 45 15 111 21 146 7 40 -13 92
-42 111 -14 9 -44 18 -67 19 -38 2 -42 5 -45 32 -8 77 -48 114 -127 114 -39 0
-46 3 -41 18 7 22 16 77 21 122 5 46 15 123 25 185 17 111 -7 177 -75 207 -40
17 -702 20 -743 2z m723 -74 c29 -24 33 -52 19 -152 -7 -53 -16 -123 -19 -155
-3 -32 -11 -73 -16 -90 -20 -62 -24 -63 -340 -63 -264 0 -289 1 -310 18 -12
11 -23 25 -25 33 -8 51 -13 91 -19 139 -4 30 -9 64 -11 75 -2 11 -7 50 -10 88
-7 76 8 113 48 119 13 2 168 3 345 2 260 0 324 -3 338 -14z m134 -544 c7 -8
10 -29 7 -48 -2 -18 -7 -53 -11 -78 -3 -25 -8 -56 -10 -70 -13 -79 -48 -320
-50 -345 -2 -16 -11 -75 -19 -130 -9 -55 -19 -122 -22 -150 -3 -27 -7 -56 -9
-62 -3 -10 -87 -13 -374 -13 l-369 0 -7 46 c-3 25 -8 53 -10 62 -1 10 -6 40
-9 67 -4 28 -11 77 -16 110 -5 33 -12 78 -15 100 -3 22 -10 69 -16 105 -37
238 -54 380 -47 399 7 21 8 21 486 21 405 0 481 -2 491 -14z m-1046 -136 c2
-3 7 -20 10 -37 l7 -33 -55 0 c-54 0 -55 0 -55 30 0 16 7 33 15 37 16 9 71 11
78 3z m1203 -15 c25 -33 10 -50 -44 -53 -49 -3 -52 -2 -52 22 0 45 9 54 48 50
20 -2 42 -11 48 -19z m-1176 -134 c0 -5 9 -68 20 -141 11 -73 20 -134 20 -136
0 -8 -99 -4 -104 5 -3 4 -8 33 -12 62 -3 30 -12 88 -19 129 -7 41 -11 78 -8
83 6 10 103 9 103 -2z m1170 -5 c0 -7 -4 -35 -9 -62 -5 -27 -12 -71 -16 -99
-3 -27 -8 -59 -10 -70 -2 -11 -4 -26 -4 -32 -1 -9 -19 -13 -55 -13 -49 0 -54
2 -51 20 2 10 11 70 20 132 9 62 18 119 20 126 6 18 105 17 105 -2z m-1116
-370 c3 -11 8 -45 11 -73 7 -61 -4 -67 -60 -33 -33 20 -55 63 -55 105 0 20 5
22 49 22 42 0 50 -3 55 -21z m1054 12 c16 -51 -30 -124 -86 -134 l-33 -7 6 39
c4 22 8 48 10 59 2 11 4 27 4 36 1 11 12 15 49 15 26 -1 48 -4 50 -8z m-218
-327 c0 -5 -3 -22 -6 -37 l-6 -29 -343 0 c-189 0 -345 2 -348 5 -2 3 -7 20
-10 38 l-6 32 359 0 c199 0 360 -4 360 -9z m-28 -165 c-7 -63 -64 -150 -128
-196 -174 -125 -427 -60 -512 131 -29 66 -31 76 -22 85 5 5 157 9 337 9 l328
-1 -3 -28z"/>
<path d="M2661 3038 c-4 -12 -4 -40 0 -62 4 -23 10 -63 13 -91 14 -110 18
-130 27 -140 13 -13 497 -14 515 0 8 5 17 24 19 40 12 71 15 93 20 150 4 33 9
68 12 78 12 45 -2 47 -309 47 -287 0 -289 0 -297 -22z m524 -100 c-4 -29 -9
-60 -11 -68 -1 -8 -3 -25 -3 -37 l-1 -23 -208 0 c-160 0 -209 3 -209 13 -2 34
-14 134 -19 150 -5 16 10 17 226 17 l232 0 -7 -52z"/>
<path d="M2821 2928 c-19 -51 21 -105 53 -72 19 18 21 65 4 82 -19 19 -48 14
-57 -10z"/>
<path d="M3042 2933 c-7 -16 -8 -37 -3 -72 2 -16 41 -20 55 -5 8 8 13 26 11
42 -2 15 -4 33 -4 40 -1 19 -49 14 -59 -5z"/>
<path d="M2711 2383 c-20 -14 -39 -59 -66 -155 -10 -37 -21 -58 -30 -58 -9 0
-15 -10 -15 -25 0 -20 5 -25 24 -25 33 0 51 28 81 127 14 45 30 85 35 88 5 3
18 -27 30 -67 30 -109 50 -142 83 -146 43 -5 61 19 92 123 15 52 31 95 36 95
4 0 17 -33 29 -72 31 -112 49 -142 86 -146 41 -4 52 12 89 127 l31 96 70 0
c72 0 89 8 74 35 -7 13 -25 16 -85 15 -95 -1 -103 -9 -141 -136 -17 -54 -31
-86 -36 -81 -6 6 -20 47 -34 92 -25 87 -42 114 -76 123 -32 9 -64 -33 -88
-114 -11 -41 -23 -80 -25 -86 -10 -29 -24 -8 -50 75 -37 118 -67 149 -114 115z"/>
<path d="M3208 2279 c-10 -6 -10 -13 -2 -26 16 -26 121 -27 135 -2 6 12 5 20
-3 26 -18 10 -113 12 -130 2z"/>
<path d="M441 2960 c-102 -37 -177 -106 -223 -205 -23 -50 -23 -54 -26 -520
-3 -521 -4 -518 62 -563 60 -41 150 -21 193 45 16 25 18 61 21 430 l3 403 24
0 25 0 0 -1062 c0 -1013 1 -1065 19 -1104 60 -132 249 -138 323 -9 l23 40 1
615 c1 338 2 619 3 623 1 5 11 7 24 5 l22 -3 1 -610 c1 -450 4 -620 13 -647
18 -54 79 -105 136 -114 84 -12 158 24 195 95 18 37 19 75 21 1102 l2 1065 24
2 c19 1 23 -3 23 -26 1 -15 1 -191 1 -391 0 -217 4 -374 10 -390 42 -109 186
-125 245 -27 18 29 19 60 21 482 3 386 1 458 -13 505 -33 113 -101 194 -204
243 l-65 31 -425 2 c-400 2 -428 1 -479 -17z m881 -62 c99 -20 186 -104 219
-210 14 -44 16 -114 15 -489 -1 -415 -2 -438 -20 -458 -24 -26 -57 -27 -87 -2
l-24 19 -2 419 c-1 230 -2 424 -2 430 -1 9 -27 12 -96 12 l-95 0 0 -1092 c0
-1065 -1 -1093 -20 -1124 -39 -65 -135 -66 -181 -2 -20 28 -20 41 -20 678 l0
650 -97 -2 -97 -2 -5 -656 c-5 -714 -2 -674 -63 -706 -49 -25 -117 0 -144 52
-7 13 -11 381 -11 1085 0 586 -1 1078 -1 1093 l-1 28 -97 -3 -98 -3 -1 -420
c-1 -231 -2 -423 -3 -427 -2 -17 -42 -48 -61 -48 -12 0 -32 11 -45 25 l-25 24
0 437 c0 470 2 486 52 562 47 68 103 111 178 132 38 11 778 10 832 -2z"/>
</g>
</svg>
